<svg xmlns="http://www.w3.org/2000/svg" xmlns:xlink="http://www.w3.org/1999/xlink" version="1.1" hidden="true">
    <symbol id="station-low" viewBox="0 0 75 68.05">
        <rect class="black" x="0.5" y="1.5" width="74" height="66.05" rx="2.5" ry="2.5"/>
        <path class="black" d="M72,2a2,2,0,0,1,2,2V65a2,2,0,0,1-2,2H3a2,2,0,0,1-2-2V4A2,2,0,0,1,3,2H72m0-1H3A3,3,0,0,0,0,4V65a3,3,0,0,0,3,3H72a3,3,0,0,0,3-3V4a3,3,0,0,0-3-3Z"/>
        <path class="color-low" d="M.5,35.5V3A2.5,2.5,0,0,1,3,.5H72A2.5,2.5,0,0,1,74.5,3V35.5Z"/>
        <path class="black" d="M72,1a2,2,0,0,1,2,2V35H1V3A2,2,0,0,1,3,1H72m0-1H3A3,3,0,0,0,0,3V36H75V3a3,3,0,0,0-3-3Z"/>
        <use width="19.45" height="20" transform="translate(27.77 8)" xlink:href="#gear-icon"/>
        <line class="divider" y1="52" x2="75" y2="52"/>
    </symbol>
</svg>
