<svg xmlns="http://www.w3.org/2000/svg" width="680.75" height="375.05" viewBox="0 0 680.75 375.05">
  <title>bfs-03-partitions</title>
  <g style="isolation: isolate">
    <g id="Layer_2" data-name="Layer 2">
      <g id="Layer_1-2" data-name="Layer 1">
        <line x1="135" y1="14.3" x2="135" y2="367.5" style="fill: none;stroke: #fcb03c;stroke-linecap: round;stroke-miterlimit: 10;stroke-width: 1.5px"/>
        <g>
          <line x1="50" y1="108.3" x2="162.28" y2="108.3" style="fill: none;stroke: #2cc1f0;stroke-miterlimit: 10;stroke-width: 4px"/>
          <polygon points="158.32 114.11 180 108.3 158.32 102.49 158.32 114.11" style="fill: #2cc1f0"/>
        </g>
        <g>
          <line x1="50" y1="108.3" x2="177.36" y2="213.98" style="fill: none;stroke: #2cc1f0;stroke-miterlimit: 10;stroke-width: 4px"/>
          <polygon points="170.6 215.92 191 225.3 178.03 206.98 170.6 215.92" style="fill: #2cc1f0"/>
        </g>
        <g>
          <g>
            <path d="M50,153.3a45.5,45.5,0,1,1,45.5-45.5A45.55,45.55,0,0,1,50,153.3Z" style="fill: #9b9da0"/>
            <path d="M50,66.8a41,41,0,1,1-41,41,41,41,0,0,1,41-41m0-9a50,50,0,1,0,50,50,50,50,0,0,0-50-50Z" style="fill: #4d4d4d"/>
          </g>
          <g style="opacity: 0.6000000000000001">
            <g style="opacity: 0.30000000000000004;mix-blend-mode: multiply">
              <text transform="translate(38.29 119.7)" style="font-size: 37.295188903808594px;font-family: Roboto-Black, Roboto">A</text>
            </g>
            <text transform="translate(37.29 118.7)" style="font-size: 37.295188903808594px;fill: #fff;font-family: Roboto-Black, Roboto">A</text>
          </g>
        </g>
        <g>
          <rect x="180" y="57.8" width="100" height="100" rx="50" ry="50" style="fill: #9b9da0"/>
          <g style="opacity: 0.6000000000000001">
            <g style="opacity: 0.30000000000000004;mix-blend-mode: multiply">
              <text transform="translate(218.97 119.7)" style="font-size: 37.295188903808594px;font-family: Roboto-Black, Roboto">B</text>
            </g>
            <text transform="translate(217.97 118.7)" style="font-size: 37.295188903808594px;fill: #fff;font-family: Roboto-Black, Roboto">B</text>
          </g>
        </g>
        <g>
          <rect x="180" y="207.3" width="100" height="100" rx="50" ry="50" style="fill: #9b9da0"/>
          <g style="opacity: 0.6000000000000001">
            <g style="opacity: 0.30000000000000004;mix-blend-mode: multiply">
              <text transform="translate(218.76 269.2)" style="font-size: 37.295188903808594px;font-family: Roboto-Black, Roboto">C</text>
            </g>
            <text transform="translate(217.76 268.2)" style="font-size: 37.295188903808594px;fill: #fff;font-family: Roboto-Black, Roboto">C</text>
          </g>
        </g>
        <line x1="320" y1="14.3" x2="320" y2="374.3" style="fill: none;stroke: #fcb03c;stroke-linecap: round;stroke-miterlimit: 10;stroke-width: 1.5px"/>
        <line x1="500" y1="14.3" x2="500" y2="374.3" style="fill: none;stroke: #fcb03c;stroke-linecap: round;stroke-miterlimit: 10;stroke-width: 1.5px"/>
        <text transform="translate(20.16 10.28)" style="font-size: 12px;fill: #fcc134;font-family: OpenSans-Extrabold, Open Sans;font-weight: 700">1. column</text>
        <text transform="translate(200.16 10.28)" style="font-size: 12px;fill: #fcc134;font-family: OpenSans-Extrabold, Open Sans;font-weight: 700">2. column</text>
        <text transform="translate(380.16 10.28)" style="font-size: 12px;fill: #fcc134;font-family: OpenSans-Extrabold, Open Sans;font-weight: 700">3. column</text>
        <line x1="680" y1="14.3" x2="680" y2="374.3" style="fill: none;stroke: #fcb03c;stroke-linecap: round;stroke-miterlimit: 10;stroke-width: 1.5px"/>
        <text transform="translate(560.16 10.28)" style="font-size: 12px;fill: #fcc134;font-family: OpenSans-Extrabold, Open Sans;font-weight: 700">4. column</text>
      </g>
    </g>
  </g>
</svg>
