<svg xmlns="http://www.w3.org/2000/svg" xmlns:xlink="http://www.w3.org/1999/xlink" width="260" height="457.5" viewBox="0 0 260 457.5">
  <defs>
    <linearGradient id="linear-gradient" x1="138" y1="217.75" x2="218" y2="217.75" gradientUnits="userSpaceOnUse">
      <stop offset="0" stop-color="#e4e5e6"/>
      <stop offset="0.5" stop-color="#fff" stop-opacity="0"/>
    </linearGradient>
    <linearGradient id="linear-gradient-2" x1="138" y1="268.75" x2="218" y2="268.75" xlink:href="#linear-gradient"/>
    <linearGradient id="linear-gradient-3" x1="180" y1="76.75" x2="260" y2="76.75" xlink:href="#linear-gradient"/>
    <linearGradient id="linear-gradient-4" x1="163" y1="390.75" x2="243" y2="390.75" xlink:href="#linear-gradient"/>
    <linearGradient id="linear-gradient-5" y1="238.75" x2="80" y2="238.75" gradientUnits="userSpaceOnUse">
      <stop offset="0" stop-color="#fff" stop-opacity="0"/>
      <stop offset="1" stop-color="#e4e5e6"/>
    </linearGradient>
    <linearGradient id="linear-gradient-6" y1="329.75" y2="329.75" xlink:href="#linear-gradient-5"/>
    <linearGradient id="linear-gradient-7" y1="148.25" y2="148.25" xlink:href="#linear-gradient-5"/>
  </defs>
  <title>Asset 3</title>
  <g style="isolation: isolate">
    <g id="Layer_2" data-name="Layer 2">
      <g id="Layer_1-2" data-name="Layer 1">
        <path d="M218,206.75c-40,0-40,22-80,22" style="fill: none;stroke-miterlimit: 10;stroke-width: 20px;stroke: url(#linear-gradient)"/>
        <path d="M218,288.75c-40,0-40-40-80-40" style="fill: none;stroke-miterlimit: 10;stroke-width: 20px;stroke: url(#linear-gradient-2)"/>
        <path d="M260,76.75H180" style="fill: none;stroke-miterlimit: 10;stroke-width: 20px;stroke: url(#linear-gradient-3)"/>
        <path d="M243,380.75c-40,0-40,20-80,20" style="fill: none;stroke-miterlimit: 10;stroke-width: 20px;stroke: url(#linear-gradient-4)"/>
        <rect x="80" y="15.75" width="100" height="123" rx="2" ry="2" style="fill: #9b9da0"/>
        <rect x="80" y="188.75" width="58" height="100" rx="2" ry="2" style="fill: #9b9da0"/>
        <rect x="80" y="358.75" width="83" height="83" rx="2" ry="2" style="fill: #9b9da0"/>
        <path d="M0,238.75H80" style="fill: none;stroke-miterlimit: 10;stroke-width: 20px;opacity: 0.5;stroke: url(#linear-gradient-5)"/>
        <path d="M0,258.75c50,0,30,142,80,142" style="fill: none;stroke-miterlimit: 10;stroke-width: 20px;opacity: 0.5;stroke: url(#linear-gradient-6)"/>
        <g style="opacity: 0.6000000000000001">
          <g style="opacity: 0.30000000000000004;mix-blend-mode: multiply">
            <text transform="translate(118.3 89.15)" style="font-size: 37.295188903808594px;font-family: Roboto-Black, Roboto">A</text>
          </g>
          <text transform="translate(117.3 88.15)" style="font-size: 37.295188903808594px;fill: #fff;font-family: Roboto-Black, Roboto">A</text>
        </g>
        <g style="opacity: 0.6000000000000001">
          <g style="opacity: 0.30000000000000004;mix-blend-mode: multiply">
            <text transform="translate(97.97 250.65)" style="font-size: 37.295188903808594px;font-family: Roboto-Black, Roboto">B</text>
          </g>
          <text transform="translate(96.97 249.65)" style="font-size: 37.295188903808594px;fill: #fff;font-family: Roboto-Black, Roboto">B</text>
        </g>
        <g style="opacity: 0.6000000000000001">
          <g style="opacity: 0.30000000000000004;mix-blend-mode: multiply">
            <text transform="translate(110.26 412.15)" style="font-size: 37.295188903808594px;font-family: Roboto-Black, Roboto">C</text>
          </g>
          <text transform="translate(109.26 411.15)" style="font-size: 37.295188903808594px;fill: #fff;font-family: Roboto-Black, Roboto">C</text>
        </g>
        <line x1="80" y1="0.75" x2="80" y2="456.75" style="fill: none;stroke: #fcb03c;stroke-linecap: round;stroke-miterlimit: 10;stroke-width: 1.5px"/>
        <path d="M0,218.75c50,0,30-141,80-141" style="fill: none;stroke-miterlimit: 10;stroke-width: 20px;opacity: 0.5;stroke: url(#linear-gradient-7)"/>
      </g>
    </g>
  </g>
</svg>
