<svg xmlns="http://www.w3.org/2000/svg" xmlns:xlink="http://www.w3.org/1999/xlink" width="540" height="375.05" viewBox="0 0 540 375.05">
  <defs>
    <linearGradient id="linear-gradient" x1="460" y1="89.3" x2="540" y2="89.3" gradientUnits="userSpaceOnUse">
      <stop offset="0" stop-color="#e4e5e6"/>
      <stop offset="0.5" stop-color="#fff" stop-opacity="0"/>
    </linearGradient>
  </defs>
  <title>normalization-before</title>
  <g style="isolation: isolate">
    <g id="Layer_2" data-name="Layer 2">
      <g id="Layer_1-2" data-name="Layer 1">
        <path d="M540,89.3H460" style="fill: none;stroke-miterlimit: 10;stroke-width: 20px;stroke: url(#linear-gradient)"/>
        <path d="M100,97.8c40,0,40,12.5,80,12.5" style="fill: none;stroke: #e4e5e6;stroke-miterlimit: 10;stroke-width: 20px"/>
        <path d="M360,79.8c-40,0-40,40-80,40" style="fill: none;stroke: #e4e5e6;stroke-miterlimit: 10;stroke-width: 20px"/>
        <rect y="57.8" width="100" height="100" rx="2" ry="2" style="fill: #9b9da0"/>
        <rect x="360" y="58.3" width="100" height="62" rx="2" ry="2" style="fill: #9b9da0"/>
        <path d="M100,117.8c40,0,40,163,80,163" style="fill: none;stroke: #e4e5e6;stroke-miterlimit: 10;stroke-width: 20px"/>
        <path d="M280,280.8c164,0-253-150.5-100-150.5" style="fill: none;stroke: #2cc1f0;stroke-miterlimit: 10;stroke-width: 20px"/>
        <path d="M278,180.8H182c-1.1,0-2-.9-2-9V52.8c0,5.9.9,5,2,5h96a2,2,0,0,1,2,2v119A2,2,0,0,1,278,180.8Z" style="fill: #9b9da0"/>
        <rect x="180" y="230.8" width="100" height="100" rx="2" ry="2" style="fill: #9b9da0"/>
        <g style="opacity: 0.6000000000000001">
          <g style="opacity: 0.30000000000000004;mix-blend-mode: multiply">
            <text transform="translate(38.29 119.7)" style="font-size: 37.295188903808594px;font-family: Roboto-Black, Roboto">A</text>
          </g>
          <text transform="translate(37.29 118.7)" style="font-size: 37.295188903808594px;fill: #fff;font-family: Roboto-Black, Roboto">A</text>
        </g>
        <g style="opacity: 0.6000000000000001">
          <g style="opacity: 0.30000000000000004;mix-blend-mode: multiply">
            <text transform="translate(218.97 131.2)" style="font-size: 37.295188903808594px;font-family: Roboto-Black, Roboto">B</text>
          </g>
          <text transform="translate(217.97 130.2)" style="font-size: 37.295188903808594px;fill: #fff;font-family: Roboto-Black, Roboto">B</text>
        </g>
        <g style="opacity: 0.6000000000000001">
          <g style="opacity: 0.30000000000000004;mix-blend-mode: multiply">
            <text transform="translate(218.76 292.7)" style="font-size: 37.295188903808594px;font-family: Roboto-Black, Roboto">C</text>
          </g>
          <text transform="translate(217.76 291.7)" style="font-size: 37.295188903808594px;fill: #fff;font-family: Roboto-Black, Roboto">C</text>
        </g>
        <g style="opacity: 0.6000000000000001">
          <g style="opacity: 0.30000000000000004;mix-blend-mode: multiply">
            <text transform="translate(398.94 101.2)" style="font-size: 37.295188903808594px;font-family: Roboto-Black, Roboto">D</text>
          </g>
          <text transform="translate(397.94 100.2)" style="font-size: 37.295188903808594px;fill: #fff;font-family: Roboto-Black, Roboto">D</text>
        </g>
        <line x1="140" y1="14.3" x2="140" y2="374.3" style="fill: none;stroke: #fcb03c;stroke-linecap: round;stroke-miterlimit: 10;stroke-width: 1.5px"/>
        <line x1="320" y1="14.3" x2="320" y2="374.3" style="fill: none;stroke: #fcb03c;stroke-linecap: round;stroke-miterlimit: 10;stroke-width: 1.5px"/>
        <text transform="translate(20.16 10.28)" style="font-size: 12px;fill: #fcc134;font-family: OpenSans-Extrabold, Open Sans;font-weight: 700">1. column</text>
        <text transform="translate(200.16 10.28)" style="font-size: 12px;fill: #fcc134;font-family: OpenSans-Extrabold, Open Sans;font-weight: 700">2. column</text>
        <text transform="translate(380.16 10.28)" style="font-size: 12px;fill: #fcc134;font-family: OpenSans-Extrabold, Open Sans;font-weight: 700">3. column</text>
      </g>
    </g>
  </g>
</svg>
