<svg xmlns="http://www.w3.org/2000/svg" width="640" height="375.05" viewBox="0 0 640 375.05">
  <title>normalization-after</title>
  <g style="isolation: isolate">
    <g id="Layer_2" data-name="Layer 2">
      <g id="Layer_1-2" data-name="Layer 1">
        <path d="M100,97.8c40,0,220,12.5,260,12.5" style="fill: none;stroke: #e4e5e6;stroke-miterlimit: 10;stroke-width: 20px"/>
        <path d="M540,89.3c-40,0-40,30.5-80,30.5" style="fill: none;stroke: #e4e5e6;stroke-miterlimit: 10;stroke-width: 20px"/>
        <rect y="57.8" width="100" height="100" rx="2" ry="2" style="fill: #9b9da0"/>
        <path d="M100,117.8c40,0,40,163,80,163" style="fill: none;stroke: #e4e5e6;stroke-miterlimit: 10;stroke-width: 20px"/>
        <g style="opacity: 0.6000000000000001">
          <g style="opacity: 0.30000000000000004;mix-blend-mode: multiply">
            <text transform="translate(38.29 119.7)" style="font-size: 37.295188903808594px;font-family: Roboto-Black, Roboto">A</text>
          </g>
          <text transform="translate(37.29 118.7)" style="font-size: 37.295188903808594px;fill: #fff;font-family: Roboto-Black, Roboto">A</text>
        </g>
        <g>
          <rect x="360" y="58.3" width="100" height="123" rx="2" ry="2" style="fill: #9b9da0"/>
          <g style="opacity: 0.6000000000000001">
            <g style="opacity: 0.30000000000000004;mix-blend-mode: multiply">
              <text transform="translate(398.97 131.7)" style="font-size: 37.295188903808594px;font-family: Roboto-Black, Roboto">B</text>
            </g>
            <text transform="translate(397.97 130.7)" style="font-size: 37.295188903808594px;fill: #fff;font-family: Roboto-Black, Roboto">B</text>
          </g>
        </g>
        <g>
          <g style="opacity: 0.30000000000000004;mix-blend-mode: multiply">
            <path d="M279,57.3H262a1,1,0,0,0,0,2h17l.22,0a.89.89,0,0,0,.89-.79,1.13,1.13,0,0,0-.72-1.18h-.07a1,1,0,0,0-.32-.05Zm-34,0H228a1,1,0,0,0,0,2h17a1,1,0,0,0,0-2Zm-34,0H194a1,1,0,0,0,0,2h17a1,1,0,0,0,0-2Zm-29,3.86a1,1,0,0,0-1,1v17a1,1,0,1,0,2,0v-17a1,1,0,0,0-1-1Zm0,34a1,1,0,0,0-1,1v17a1,1,0,1,0,2,0v-17a1,1,0,0,0-1-1Zm0,34a1,1,0,0,0-1,1v17a1,1,0,1,0,2,0v-17a1,1,0,0,0-1-1Zm0,34a1,1,0,0,0-1,1V178.3a1,1,0,0,0,2,0V164.16a1,1,0,0,0-1-1Zm34.72,15.14h-17a1,1,0,0,0,0,2h17a1,1,0,0,0,0-2Zm34,0h-17a1,1,0,1,0,0,2h17a1,1,0,0,0,0-2ZM280,174.72a1,1,0,0,0-1,1v2.57H267.72a1,1,0,0,0,0,2H279a7.06,7.06,0,0,0,2-4.57h0a1,1,0,0,0-1-1Zm0-34a1,1,0,0,0-1,1v17a1,1,0,0,0,2,0v-17a1,1,0,0,0-1-1Zm0-34a1,1,0,0,0-1,1v17a1,1,0,1,0,2,0v-17a1,1,0,0,0-1-1Zm0-34a1,1,0,0,0-1,1v17a1,1,0,0,0,2,0v-17a1,1,0,0,0-1-1Zm-.73-15.41.13,0,.17,0-.16,0h0l-.14,0Z"/>
          </g>
          <path d="M278,56.3H261a1,1,0,0,0,0,2h17l.22,0a.89.89,0,0,0,.89-.79,1.13,1.13,0,0,0-.72-1.18h-.07a1,1,0,0,0-.32-.05Zm-34,0H227a1,1,0,0,0,0,2h17a1,1,0,0,0,0-2Zm-34,0H193a1,1,0,0,0,0,2h17a1,1,0,0,0,0-2Zm-29,3.86a1,1,0,0,0-1,1v17a1,1,0,1,0,2,0v-17a1,1,0,0,0-1-1Zm0,34a1,1,0,0,0-1,1v17a1,1,0,1,0,2,0v-17a1,1,0,0,0-1-1Zm0,34a1,1,0,0,0-1,1v17a1,1,0,1,0,2,0v-17a1,1,0,0,0-1-1Zm0,34a1,1,0,0,0-1,1V177.3a1,1,0,0,0,2,0V163.16a1,1,0,0,0-1-1Zm34.72,15.14h-17a1,1,0,0,0,0,2h17a1,1,0,0,0,0-2Zm34,0h-17a1,1,0,1,0,0,2h17a1,1,0,0,0,0-2ZM279,173.72a1,1,0,0,0-1,1v2.57H266.72a1,1,0,0,0,0,2H278a7.06,7.06,0,0,0,2-4.57h0a1,1,0,0,0-1-1Zm0-34a1,1,0,0,0-1,1v17a1,1,0,0,0,2,0v-17a1,1,0,0,0-1-1Zm0-34a1,1,0,0,0-1,1v17a1,1,0,1,0,2,0v-17a1,1,0,0,0-1-1Zm0-34a1,1,0,0,0-1,1v17a1,1,0,0,0,2,0v-17a1,1,0,0,0-1-1Zm-.73-15.41.13,0,.17,0-.16,0h0l-.14,0Z" style="fill: #ef6466"/>
        </g>
        <g style="opacity: 0.6000000000000001">
          <g style="opacity: 0.30000000000000004;mix-blend-mode: multiply">
            <text transform="translate(218.97 129.7)" style="font-size: 37.295188903808594px;font-family: Roboto-Black, Roboto">B</text>
          </g>
          <text transform="translate(217.97 128.7)" style="font-size: 37.295188903808594px;fill: #ef6466;font-family: Roboto-Black, Roboto">B</text>
        </g>
        <g style="opacity: 0.6000000000000001">
          <g style="opacity: 0.30000000000000004;mix-blend-mode: multiply">
            <text transform="translate(194.18 141.7)" style="font-size: 10px;font-family: Roboto-Black, Roboto">ImaginaryShape</text>
          </g>
          <text transform="translate(193.18 140.7)" style="font-size: 10px;fill: #ef6466;font-family: Roboto-Black, Roboto">ImaginaryShape</text>
        </g>
        <g>
          <rect x="180" y="230.8" width="100" height="100" rx="2" ry="2" style="fill: #9b9da0"/>
          <g style="opacity: 0.6000000000000001">
            <g style="opacity: 0.30000000000000004;mix-blend-mode: multiply">
              <text transform="translate(218.76 292.7)" style="font-size: 37.295188903808594px;font-family: Roboto-Black, Roboto">C</text>
            </g>
            <text transform="translate(217.76 291.7)" style="font-size: 37.295188903808594px;fill: #fff;font-family: Roboto-Black, Roboto">C</text>
          </g>
        </g>
        <g>
          <g style="opacity: 0.30000000000000004;mix-blend-mode: multiply">
            <path d="M459,232.3H442a1,1,0,0,0,0,2h17a1,1,0,0,0,0-2Zm-34,0H408a1,1,0,0,0,0,2h17a1,1,0,0,0,0-2Zm-34,0H374a1,1,0,0,0,0,2h17a1,1,0,0,0,0-2Zm-29,3.86a1,1,0,0,0-1,1v17a1,1,0,0,0,2,0v-17a1,1,0,0,0-1-1Zm0,34a1,1,0,0,0-1,1v17a1,1,0,0,0,2,0v-17a1,1,0,0,0-1-1Zm0,34a1,1,0,0,0-1,1v17a1,1,0,0,0,2,0v-17a1,1,0,0,0-1-1Zm23.72,26.14h-17a1,1,0,0,0,0,2h17a1,1,0,0,0,0-2Zm34,0h-17a1,1,0,0,0,0,2h17a1,1,0,0,0,0-2Zm34,0h-17a1,1,0,0,0,0,2h17a1,1,0,0,0,0-2ZM460,303.72a1,1,0,0,0-1,1v17a1,1,0,1,0,2,0v-17a1,1,0,0,0-1-1Zm0-34a1,1,0,0,0-1,1v17a1,1,0,1,0,2,0v-17a1,1,0,0,0-1-1Zm0-34a1,1,0,0,0-1,1v17a1,1,0,0,0,2,0v-17a1,1,0,0,0-1-1Z"/>
          </g>
          <path d="M458,231.3H441a1,1,0,0,0,0,2h17a1,1,0,0,0,0-2Zm-34,0H407a1,1,0,0,0,0,2h17a1,1,0,0,0,0-2Zm-34,0H373a1,1,0,0,0,0,2h17a1,1,0,0,0,0-2Zm-29,3.86a1,1,0,0,0-1,1v17a1,1,0,0,0,2,0v-17a1,1,0,0,0-1-1Zm0,34a1,1,0,0,0-1,1v17a1,1,0,0,0,2,0v-17a1,1,0,0,0-1-1Zm0,34a1,1,0,0,0-1,1v17a1,1,0,0,0,2,0v-17a1,1,0,0,0-1-1Zm23.72,26.14h-17a1,1,0,0,0,0,2h17a1,1,0,0,0,0-2Zm34,0h-17a1,1,0,0,0,0,2h17a1,1,0,0,0,0-2Zm34,0h-17a1,1,0,0,0,0,2h17a1,1,0,0,0,0-2ZM459,302.72a1,1,0,0,0-1,1v17a1,1,0,1,0,2,0v-17a1,1,0,0,0-1-1Zm0-34a1,1,0,0,0-1,1v17a1,1,0,1,0,2,0v-17a1,1,0,0,0-1-1Zm0-34a1,1,0,0,0-1,1v17a1,1,0,0,0,2,0v-17a1,1,0,0,0-1-1Z" style="fill: #ef6466"/>
        </g>
        <g style="opacity: 0.6000000000000001">
          <g style="opacity: 0.30000000000000004;mix-blend-mode: multiply">
            <text transform="translate(398.76 293.2)" style="font-size: 37.295188903808594px;font-family: Roboto-Black, Roboto">C</text>
          </g>
          <text transform="translate(397.76 292.2)" style="font-size: 37.295188903808594px;fill: #ef6466;font-family: Roboto-Black, Roboto">C</text>
        </g>
        <g style="opacity: 0.6000000000000001">
          <g style="opacity: 0.30000000000000004;mix-blend-mode: multiply">
            <text transform="translate(374.18 305.7)" style="font-size: 10px;font-family: Roboto-Black, Roboto">ImaginaryShape</text>
          </g>
          <text transform="translate(373.18 304.7)" style="font-size: 10px;fill: #ef6466;font-family: Roboto-Black, Roboto">ImaginaryShape</text>
        </g>
        <g>
          <rect x="540" y="58.3" width="100" height="62" rx="2" ry="2" style="fill: #9b9da0"/>
          <g style="opacity: 0.6000000000000001">
            <g style="opacity: 0.30000000000000004;mix-blend-mode: multiply">
              <text transform="translate(578.94 101.2)" style="font-size: 37.295188903808594px;font-family: Roboto-Black, Roboto">D</text>
            </g>
            <text transform="translate(577.94 100.2)" style="font-size: 37.295188903808594px;fill: #fff;font-family: Roboto-Black, Roboto">D</text>
          </g>
        </g>
        <line x1="135" y1="14.3" x2="135" y2="367.5" style="fill: none;stroke: #fcb03c;stroke-linecap: round;stroke-miterlimit: 10;stroke-width: 1.5px"/>
        <line x1="320" y1="14.3" x2="320" y2="374.3" style="fill: none;stroke: #fcb03c;stroke-linecap: round;stroke-miterlimit: 10;stroke-width: 1.5px"/>
        <line x1="500" y1="14.3" x2="500" y2="374.3" style="fill: none;stroke: #fcb03c;stroke-linecap: round;stroke-miterlimit: 10;stroke-width: 1.5px"/>
        <path d="M360,130.3c-40,0-40,141-80,141" style="fill: none;stroke: #2cc1f0;stroke-miterlimit: 10;stroke-width: 20px"/>
        <text transform="translate(20.16 10.28)" style="font-size: 12px;fill: #fcc134;font-family: OpenSans-Extrabold, Open Sans;font-weight: 700">1. column</text>
        <text transform="translate(200.16 10.28)" style="font-size: 12px;fill: #fcc134;font-family: OpenSans-Extrabold, Open Sans;font-weight: 700">2. column</text>
        <text transform="translate(380.16 10.28)" style="font-size: 12px;fill: #fcc134;font-family: OpenSans-Extrabold, Open Sans;font-weight: 700">3. column</text>
        <text transform="translate(560.16 10.28)" style="font-size: 12px;fill: #fcc134;font-family: OpenSans-Extrabold, Open Sans;font-weight: 700">4. column</text>
      </g>
    </g>
  </g>
</svg>
