<svg xmlns="http://www.w3.org/2000/svg" width="521.5" height="273.75" viewBox="0 0 521.5 273.75">
  <title>Asset 1</title>
  <g style="isolation: isolate">
    <g id="Layer_2" data-name="Layer 2">
      <g id="Layer_1-2" data-name="Layer 1">
        <path d="M390.75,193.75c-40,0-40,41-80,41" style="fill: none;stroke: #e4e5e6;stroke-miterlimit: 10;stroke-width: 20px"/>
        <path d="M130.75,40.75c40,0,40,22,80,22" style="fill: none;stroke: #e4e5e6;stroke-miterlimit: 10;stroke-width: 20px"/>
        <path d="M390.75,22.75c-40,0-40,40-80,40" style="fill: none;stroke: #e4e5e6;stroke-miterlimit: 10;stroke-width: 20px"/>
        <rect x="30.75" y="0.75" width="100" height="100" rx="2" ry="2" style="fill: #9b9da0"/>
        <rect x="210.75" y="0.75" width="100" height="123" rx="2" ry="2" style="fill: #9b9da0"/>
        <rect x="210.75" y="173.75" width="100" height="100" rx="2" ry="2" style="fill: #9b9da0"/>
        <rect x="390.75" y="173.75" width="100" height="40" rx="2" ry="2" style="fill: #9b9da0"/>
        <rect x="390.75" y="1.25" width="100" height="62" rx="2" ry="2" style="fill: #9b9da0"/>
        <path d="M130.75,60.75c40,0,40,163,80,163" style="fill: none;stroke: #e4e5e6;stroke-miterlimit: 10;stroke-width: 20px"/>
        <path d="M390.75,42.75c-40,0-40,172-80,172" style="fill: none;stroke: #e4e5e6;stroke-miterlimit: 10;stroke-width: 20px"/>
        <g style="opacity: 0.6000000000000001">
          <g style="opacity: 0.30000000000000004;mix-blend-mode: multiply">
            <text transform="translate(69.04 62.65)" style="font-size: 37.295188903808594px;font-family: Roboto-Black, Roboto">A</text>
          </g>
          <text transform="translate(68.04 61.65)" style="font-size: 37.295188903808594px;fill: #fff;font-family: Roboto-Black, Roboto">A</text>
        </g>
        <g style="opacity: 0.6000000000000001">
          <g style="opacity: 0.30000000000000004;mix-blend-mode: multiply">
            <text transform="translate(249.72 74.15)" style="font-size: 37.295188903808594px;font-family: Roboto-Black, Roboto">B</text>
          </g>
          <text transform="translate(248.72 73.15)" style="font-size: 37.295188903808594px;fill: #fff;font-family: Roboto-Black, Roboto">B</text>
        </g>
        <g style="opacity: 0.6000000000000001">
          <g style="opacity: 0.30000000000000004;mix-blend-mode: multiply">
            <text transform="translate(249.51 235.65)" style="font-size: 37.295188903808594px;font-family: Roboto-Black, Roboto">C</text>
          </g>
          <text transform="translate(248.51 234.65)" style="font-size: 37.295188903808594px;fill: #fff;font-family: Roboto-Black, Roboto">C</text>
        </g>
        <g style="opacity: 0.6000000000000001">
          <g style="opacity: 0.30000000000000004;mix-blend-mode: multiply">
            <text transform="translate(429.69 44.15)" style="font-size: 37.295188903808594px;font-family: Roboto-Black, Roboto">D</text>
          </g>
          <text transform="translate(428.69 43.15)" style="font-size: 37.295188903808594px;fill: #fff;font-family: Roboto-Black, Roboto">D</text>
        </g>
        <g style="opacity: 0.6000000000000001">
          <g style="opacity: 0.30000000000000004;mix-blend-mode: multiply">
            <text transform="translate(431.32 207.65)" style="font-size: 37.295188903808594px;font-family: Roboto-Black, Roboto">E</text>
          </g>
          <text transform="translate(430.32 206.65)" style="font-size: 37.295188903808594px;fill: #fff;font-family: Roboto-Black, Roboto">E</text>
        </g>
        <line x1="0.75" y1="173.75" x2="520.75" y2="173.75" style="fill: none;stroke: #fcb03c;stroke-linecap: round;stroke-miterlimit: 10;stroke-width: 1.5px"/>
        <line x1="0.75" y1="0.75" x2="520.75" y2="0.75" style="fill: none;stroke: #fcb03c;stroke-linecap: round;stroke-miterlimit: 10;stroke-width: 1.5px"/>
      </g>
    </g>
  </g>
</svg>
