<svg xmlns="http://www.w3.org/2000/svg" width="685.51" height="274.5" viewBox="0 0 685.51 274.5">
  <title>vertical-distribution-center</title>
  <g style="isolation: isolate">
    <g id="Layer_2" data-name="Layer 2">
      <g id="Layer_1-2" data-name="Layer 1">
        <rect x="30.75" y="87.25" width="100" height="100" rx="2" ry="2" style="fill: #9b9da0"/>
        <rect x="210.75" y="0.75" width="100" height="123" rx="2" ry="2" style="fill: #9b9da0"/>
        <rect x="210.75" y="173.75" width="100" height="100" rx="2" ry="2" style="fill: #9b9da0"/>
        <rect x="390.75" y="61.75" width="100" height="62" rx="2" ry="2" style="fill: #9b9da0"/>
        <path d="M130.75,147.75c40,0,40,76,80,76" style="fill: none;stroke: #e4e5e6;stroke-miterlimit: 10;stroke-width: 20px"/>
        <path d="M210.75,50.75c-40,0-40,76-80,76" style="fill: none;stroke: #e4e5e6;stroke-miterlimit: 10;stroke-width: 20px"/>
        <path d="M390.75,102.75c-40,0-40,111-80,111" style="fill: none;stroke: #e4e5e6;stroke-miterlimit: 10;stroke-width: 20px"/>
        <path d="M390.75,193.75c-40,0-40,40-80,40" style="fill: none;stroke: #e4e5e6;stroke-miterlimit: 10;stroke-width: 20px"/>
        <path d="M310.75,50.75c40,0,40,32,80,32" style="fill: none;stroke: #e4e5e6;stroke-miterlimit: 10;stroke-width: 20px"/>
        <text transform="translate(608.75 133.5)" style="font-size: 12px;fill: #ef6466;font-family: OpenSans-SemiboldItalic, Open Sans;font-weight: 700;font-style: italic">max height<tspan x="0" y="14.4">of all columns</tspan></text>
        <g>
          <line x1="593.94" y1="265.51" x2="593.94" y2="8.99" style="fill: none;stroke: #ef6466;stroke-miterlimit: 10"/>
          <polygon points="596.64 263.67 593.94 273.75 591.24 263.67 596.64 263.67" style="fill: #ef6466"/>
          <polygon points="596.64 10.83 593.94 0.75 591.24 10.83 596.64 10.83" style="fill: #ef6466"/>
        </g>
        <line x1="588.94" y1="0.75" x2="598.94" y2="0.75" style="fill: none;stroke: #ef6466;stroke-miterlimit: 10"/>
        <line x1="588.69" y1="137.25" x2="599.19" y2="137.25" style="fill: none;stroke: #ef6466;stroke-miterlimit: 10"/>
        <text transform="translate(329.75 146.5)" style="font-size: 12px;fill: #ef6466;font-family: OpenSans-Extrabold, Open Sans;font-weight: 700">top<tspan x="0" y="14.4">margin</tspan></text>
        <g>
          <line x1="317.25" y1="133.99" x2="317.25" y2="166.51" style="fill: none;stroke: #ef6466;stroke-miterlimit: 10"/>
          <polygon points="314.55 135.83 317.25 125.75 319.95 135.83 314.55 135.83" style="fill: #ef6466"/>
          <polygon points="314.55 164.67 317.25 174.75 319.95 164.67 314.55 164.67" style="fill: #ef6466"/>
        </g>
        <line x1="311.75" y1="174.25" x2="321.75" y2="174.25" style="fill: none;stroke: #ef6466;stroke-miterlimit: 10"/>
        <line x1="311.75" y1="124.25" x2="321.75" y2="124.25" style="fill: none;stroke: #ef6466;stroke-miterlimit: 10"/>
        <text transform="translate(510.75 146.5)" style="font-size: 12px;fill: #ef6466;font-family: OpenSans-Extrabold, Open Sans;font-weight: 700">top<tspan x="0" y="14.4">margin</tspan></text>
        <g>
          <line x1="498.25" y1="132.99" x2="498.25" y2="165.51" style="fill: none;stroke: #ef6466;stroke-miterlimit: 10"/>
          <polygon points="495.55 134.83 498.25 124.75 500.95 134.83 495.55 134.83" style="fill: #ef6466"/>
          <polygon points="495.55 163.67 498.25 173.75 500.95 163.67 495.55 163.67" style="fill: #ef6466"/>
        </g>
        <line x1="492.75" y1="173.25" x2="502.75" y2="173.25" style="fill: none;stroke: #ef6466;stroke-miterlimit: 10"/>
        <line x1="492.75" y1="123.25" x2="502.75" y2="123.25" style="fill: none;stroke: #ef6466;stroke-miterlimit: 10"/>
        <line x1="588.94" y1="273.75" x2="598.94" y2="273.75" style="fill: none;stroke: #ef6466;stroke-miterlimit: 10"/>
        <g style="opacity: 0.6000000000000001">
          <g style="opacity: 0.30000000000000004;mix-blend-mode: multiply">
            <text transform="translate(69.04 149.15)" style="font-size: 37.295188903808594px;font-family: Roboto-Black, Roboto">A</text>
          </g>
          <text transform="translate(68.04 148.15)" style="font-size: 37.295188903808594px;fill: #fff;font-family: Roboto-Black, Roboto">A</text>
        </g>
        <g style="opacity: 0.6000000000000001">
          <g style="opacity: 0.30000000000000004;mix-blend-mode: multiply">
            <text transform="translate(249.72 74.15)" style="font-size: 37.295188903808594px;font-family: Roboto-Black, Roboto">B</text>
          </g>
          <text transform="translate(248.72 73.15)" style="font-size: 37.295188903808594px;fill: #fff;font-family: Roboto-Black, Roboto">B</text>
        </g>
        <g style="opacity: 0.6000000000000001">
          <g style="opacity: 0.30000000000000004;mix-blend-mode: multiply">
            <text transform="translate(249.51 235.65)" style="font-size: 37.295188903808594px;font-family: Roboto-Black, Roboto">C</text>
          </g>
          <text transform="translate(248.51 234.65)" style="font-size: 37.295188903808594px;fill: #fff;font-family: Roboto-Black, Roboto">C</text>
        </g>
        <rect x="390.75" y="173.75" width="100" height="40" rx="2" ry="2" style="fill: #9b9da0"/>
        <g style="opacity: 0.6000000000000001">
          <g style="opacity: 0.30000000000000004;mix-blend-mode: multiply">
            <text transform="translate(431.32 207.65)" style="font-size: 37.295188903808594px;font-family: Roboto-Black, Roboto">E</text>
          </g>
          <text transform="translate(430.32 206.65)" style="font-size: 37.295188903808594px;fill: #fff;font-family: Roboto-Black, Roboto">E</text>
        </g>
        <g style="opacity: 0.6000000000000001">
          <g style="opacity: 0.30000000000000004;mix-blend-mode: multiply">
            <text transform="translate(429.69 104.65)" style="font-size: 37.295188903808594px;font-family: Roboto-Black, Roboto">D</text>
          </g>
          <text transform="translate(428.69 103.65)" style="font-size: 37.295188903808594px;fill: #fff;font-family: Roboto-Black, Roboto">D</text>
        </g>
        <path d="M311.25,274.25" style="fill: none;stroke: #f0f;stroke-miterlimit: 10"/>
        <path d="M211.25,1.25" style="fill: none;stroke: #f0f;stroke-miterlimit: 10"/>
        <path d="M210.25,274.25" style="fill: none;stroke: #f0f;stroke-miterlimit: 10"/>
        <path d="M311.25.25" style="fill: none;stroke: #f0f;stroke-miterlimit: 10"/>
        <line x1="0.75" y1="273.75" x2="584.75" y2="273.75" style="fill: none;stroke: #fcb03c;stroke-linecap: round;stroke-miterlimit: 10;stroke-width: 1.5px"/>
        <line x1="0.75" y1="0.75" x2="584.75" y2="0.75" style="fill: none;stroke: #fcb03c;stroke-linecap: round;stroke-miterlimit: 10;stroke-width: 1.5px"/>
        <g style="opacity: 0.6000000000000001">
          <g>
            <line x1="0.75" y1="137.25" x2="3.25" y2="137.25" style="fill: none;stroke: #42a1ba;stroke-linecap: round;stroke-miterlimit: 10;stroke-width: 1.5px"/>
            <line x1="8.07" y1="137.25" x2="49.09" y2="137.25" style="fill: none;stroke: #42a1ba;stroke-linecap: round;stroke-miterlimit: 10;stroke-width: 1.5px;stroke-dasharray: 38.599998474121094,4.824999809265137"/>
            <line x1="51.5" y1="137.25" x2="579.84" y2="137.25" style="fill: none;stroke: #42a1ba;stroke-linecap: round;stroke-miterlimit: 10;stroke-width: 1.5px;stroke-dasharray: 4.824999809265137,4.824999809265137,38.599998474121094,4.824999809265137"/>
            <line x1="582.25" y1="137.25" x2="584.75" y2="137.25" style="fill: none;stroke: #42a1ba;stroke-linecap: round;stroke-miterlimit: 10;stroke-width: 1.5px"/>
          </g>
        </g>
        <rect x="390.75" y="61.25" width="100" height="152" style="fill: none;stroke: #42a1ba;stroke-miterlimit: 10;opacity: 0.6000000000000001"/>
        <g style="opacity: 0.6000000000000001">
          <path d="M309.75,2.75v270h-98V2.75h98m1-1h-100v272h100V1.75Z" style="fill: #42a1ba"/>
        </g>
        <rect x="30.25" y="87.25" width="100" height="100" style="fill: none;stroke: #42a1ba;stroke-miterlimit: 10;opacity: 0.6000000000000001"/>
        <path d="M373.77,171.93" style="fill: none;stroke: lime;stroke-miterlimit: 10"/>
        <path d="M391.25,213.25" style="fill: none;stroke: lime;stroke-miterlimit: 10"/>
        <path d="M490.25,61.25" style="fill: none;stroke: lime;stroke-miterlimit: 10"/>
        <circle cx="260.25" cy="137.25" r="2.5" style="fill: #fcc134;stroke: #42a1ba;stroke-miterlimit: 10;stroke-width: 2px;opacity: 0.6000000000000001"/>
        <circle cx="440.75" cy="137.25" r="2.5" style="fill: #fcc134;stroke: #42a1ba;stroke-miterlimit: 10;stroke-width: 2px;opacity: 0.6000000000000001"/>
        <circle cx="80.75" cy="137.25" r="2.5" style="fill: #fcc134;stroke: #42a1ba;stroke-miterlimit: 10;stroke-width: 2px;opacity: 0.6000000000000001"/>
      </g>
    </g>
  </g>
</svg>
