<svg xmlns="http://www.w3.org/2000/svg" width="626.26" height="274.75" viewBox="0 0 626.26 274.75">
  <title>vertical-distribution-top</title>
  <g style="isolation: isolate">
    <g id="Layer_2" data-name="Layer 2">
      <g id="Layer_1-2" data-name="Layer 1">
        <path d="M390.75,194c-40,0-40,41-80,41" style="fill: none;stroke: #e4e5e6;stroke-miterlimit: 10;stroke-width: 20px"/>
        <path d="M130.75,41c40,0,40,22,80,22" style="fill: none;stroke: #e4e5e6;stroke-miterlimit: 10;stroke-width: 20px"/>
        <path d="M390.75,23c-40,0-40,40-80,40" style="fill: none;stroke: #e4e5e6;stroke-miterlimit: 10;stroke-width: 20px"/>
        <rect x="30.75" y="1" width="100" height="100" rx="2" ry="2" style="fill: #9b9da0"/>
        <rect x="210.75" y="1" width="100" height="123" rx="2" ry="2" style="fill: #9b9da0"/>
        <rect x="210.75" y="174" width="100" height="100" rx="2" ry="2" style="fill: #9b9da0"/>
        <rect x="390.75" y="174" width="100" height="40" rx="2" ry="2" style="fill: #9b9da0"/>
        <rect x="390.75" y="1.5" width="100" height="62" rx="2" ry="2" style="fill: #9b9da0"/>
        <path d="M130.75,61c40,0,40,163,80,163" style="fill: none;stroke: #e4e5e6;stroke-miterlimit: 10;stroke-width: 20px"/>
        <path d="M390.75,43c-40,0-40,172-80,172" style="fill: none;stroke: #e4e5e6;stroke-miterlimit: 10;stroke-width: 20px"/>
        <text transform="translate(545.75 52.05)" style="font-size: 12px;fill: #ef6466;font-family: OpenSans-SemiboldItalic, Open Sans;font-weight: 700;font-style: italic">max height <tspan x="0" y="14.4">of all elements</tspan><tspan x="0" y="28.8">in row</tspan></text>
        <text transform="translate(545.75 213.92)" style="font-size: 12px;fill: #ef6466;font-family: OpenSans-SemiboldItalic, Open Sans;font-weight: 700;font-style: italic">max height <tspan x="0" y="14.4">of all elements</tspan><tspan x="0" y="28.8">in row</tspan></text>
        <text transform="translate(543.75 146.75)" style="font-size: 12px;fill: #ef6466;font-family: OpenSans-Extrabold, Open Sans;font-weight: 700">top<tspan x="0" y="14.4">margin</tspan></text>
        <g>
          <line x1="530.75" y1="9.24" x2="530.75" y2="116.76" style="fill: none;stroke: #ef6466;stroke-miterlimit: 10"/>
          <polygon points="528.05 11.08 530.75 1 533.45 11.08 528.05 11.08" style="fill: #ef6466"/>
          <polygon points="528.05 114.92 530.75 125 533.45 114.92 528.05 114.92" style="fill: #ef6466"/>
        </g>
        <g>
          <line x1="530.75" y1="184.11" x2="530.75" y2="265.64" style="fill: none;stroke: #ef6466;stroke-miterlimit: 10"/>
          <polygon points="528.05 185.96 530.75 175.88 533.45 185.96 528.05 185.96" style="fill: #ef6466"/>
          <polygon points="528.05 263.79 530.75 273.88 533.45 263.79 528.05 263.79" style="fill: #ef6466"/>
        </g>
        <g>
          <line x1="531.25" y1="134.24" x2="531.25" y2="166.76" style="fill: none;stroke: #ef6466;stroke-miterlimit: 10"/>
          <polygon points="528.55 136.08 531.25 126 533.95 136.08 528.55 136.08" style="fill: #ef6466"/>
          <polygon points="528.55 164.92 531.25 175 533.95 164.92 528.55 164.92" style="fill: #ef6466"/>
        </g>
        <line x1="525.75" y1="174.5" x2="535.75" y2="174.5" style="fill: none;stroke: #ef6466;stroke-miterlimit: 10"/>
        <line x1="525.75" y1="274" x2="535.75" y2="274" style="fill: none;stroke: #ef6466;stroke-miterlimit: 10"/>
        <line x1="525.75" y1="124.5" x2="535.75" y2="124.5" style="fill: none;stroke: #ef6466;stroke-miterlimit: 10"/>
        <line x1="525.75" y1="0.5" x2="535.75" y2="0.5" style="fill: none;stroke: #ef6466;stroke-miterlimit: 10"/>
        <g style="opacity: 0.6000000000000001">
          <g style="opacity: 0.30000000000000004;mix-blend-mode: multiply">
            <text transform="translate(69.04 62.9)" style="font-size: 37.295188903808594px;font-family: Roboto-Black, Roboto">A</text>
          </g>
          <text transform="translate(68.04 61.9)" style="font-size: 37.295188903808594px;fill: #fff;font-family: Roboto-Black, Roboto">A</text>
        </g>
        <g style="opacity: 0.6000000000000001">
          <g style="opacity: 0.30000000000000004;mix-blend-mode: multiply">
            <text transform="translate(249.72 74.4)" style="font-size: 37.295188903808594px;font-family: Roboto-Black, Roboto">B</text>
          </g>
          <text transform="translate(248.72 73.4)" style="font-size: 37.295188903808594px;fill: #fff;font-family: Roboto-Black, Roboto">B</text>
        </g>
        <g style="opacity: 0.6000000000000001">
          <g style="opacity: 0.30000000000000004;mix-blend-mode: multiply">
            <text transform="translate(249.51 235.9)" style="font-size: 37.295188903808594px;font-family: Roboto-Black, Roboto">C</text>
          </g>
          <text transform="translate(248.51 234.9)" style="font-size: 37.295188903808594px;fill: #fff;font-family: Roboto-Black, Roboto">C</text>
        </g>
        <g style="opacity: 0.6000000000000001">
          <g style="opacity: 0.30000000000000004;mix-blend-mode: multiply">
            <text transform="translate(429.69 44.4)" style="font-size: 37.295188903808594px;font-family: Roboto-Black, Roboto">D</text>
          </g>
          <text transform="translate(428.69 43.4)" style="font-size: 37.295188903808594px;fill: #fff;font-family: Roboto-Black, Roboto">D</text>
        </g>
        <g style="opacity: 0.6000000000000001">
          <g style="opacity: 0.30000000000000004;mix-blend-mode: multiply">
            <text transform="translate(431.32 207.9)" style="font-size: 37.295188903808594px;font-family: Roboto-Black, Roboto">E</text>
          </g>
          <text transform="translate(430.32 206.9)" style="font-size: 37.295188903808594px;fill: #fff;font-family: Roboto-Black, Roboto">E</text>
        </g>
        <line x1="0.75" y1="174" x2="520.75" y2="174" style="fill: none;stroke: #fcb03c;stroke-linecap: round;stroke-miterlimit: 10;stroke-width: 1.5px"/>
        <line x1="0.75" y1="124.5" x2="520.75" y2="124.5" style="fill: none;stroke: #fcb03c;stroke-linecap: round;stroke-miterlimit: 10;stroke-width: 1.5px"/>
        <line x1="0.75" y1="1" x2="520.75" y2="1" style="fill: none;stroke: #fcb03c;stroke-linecap: round;stroke-miterlimit: 10;stroke-width: 1.5px"/>
        <line x1="0.75" y1="274" x2="520.75" y2="274" style="fill: none;stroke: #fcb03c;stroke-linecap: round;stroke-miterlimit: 10;stroke-width: 1.5px"/>
      </g>
    </g>
  </g>
</svg>
